<svg width="156" height="253" viewBox="0 0 156 253" fill="none" xmlns="http://www.w3.org/2000/svg">
<mask id="mask0" mask-type="alpha" maskUnits="userSpaceOnUse" x="-97" y="0" width="253" height="253">
<circle cx="29.5" cy="126.5" r="125.5" fill="#191922" stroke="#8F8FA3" stroke-width="2"/>
</mask>
<g mask="url(#mask0)">
<line x1="-218.742" y1="205.879" x2="105.647" y2="-118.51" stroke="#EBEBF2" stroke-width="2" stroke-linecap="round" stroke-linejoin="round"/>
<line x1="-205.684" y1="218.937" x2="118.705" y2="-105.452" stroke="#EBEBF2" stroke-width="2" stroke-linecap="round" stroke-linejoin="round"/>
<line x1="-192.625" y1="231.995" x2="131.764" y2="-92.3936" stroke="#EBEBF2" stroke-width="2" stroke-linecap="round" stroke-linejoin="round"/>
<line x1="-179.567" y1="245.054" x2="144.822" y2="-79.3355" stroke="#EBEBF2" stroke-width="2" stroke-linecap="round" stroke-linejoin="round"/>
<line x1="-166.509" y1="258.112" x2="157.88" y2="-66.2769" stroke="#EBEBF2" stroke-width="2" stroke-linecap="round" stroke-linejoin="round"/>
<line x1="-88.1596" y1="336.461" x2="236.23" y2="12.0722" stroke="#EBEBF2" stroke-width="2" stroke-linecap="round" stroke-linejoin="round"/>
<line x1="-153.451" y1="271.17" x2="170.938" y2="-53.2188" stroke="#EBEBF2" stroke-width="2" stroke-linecap="round" stroke-linejoin="round"/>
<line x1="-75.1009" y1="349.519" x2="249.288" y2="25.1303" stroke="#EBEBF2" stroke-width="2" stroke-linecap="round" stroke-linejoin="round"/>
<line x1="-140.392" y1="284.228" x2="183.997" y2="-40.1608" stroke="#EBEBF2" stroke-width="2" stroke-linecap="round" stroke-linejoin="round"/>
<line x1="-62.0432" y1="362.578" x2="262.346" y2="38.1889" stroke="#EBEBF2" stroke-width="2" stroke-linecap="round" stroke-linejoin="round"/>
<line x1="-127.334" y1="297.286" x2="197.055" y2="-27.1027" stroke="#EBEBF2" stroke-width="2" stroke-linecap="round" stroke-linejoin="round"/>
<line x1="-48.9845" y1="375.636" x2="275.405" y2="51.247" stroke="#EBEBF2" stroke-width="2" stroke-linecap="round" stroke-linejoin="round"/>
<line x1="-114.276" y1="310.345" x2="210.113" y2="-14.0441" stroke="#EBEBF2" stroke-width="2" stroke-linecap="round" stroke-linejoin="round"/>
<line x1="-101.217" y1="323.403" x2="223.172" y2="-0.985924" stroke="#EBEBF2" stroke-width="2" stroke-linecap="round" stroke-linejoin="round"/>
</g>
</svg>
