<svg width="257" height="267" viewBox="0 0 257 267" fill="none" xmlns="http://www.w3.org/2000/svg">
<g opacity="0.2">
<mask id="mask0" mask-type="alpha" maskUnits="userSpaceOnUse" x="0" y="0" width="257" height="267">
<rect width="267" height="257" transform="matrix(1.31134e-07 -1 -1 -1.31134e-07 257 267)" fill="#C4C4C4"/>
</mask>
<g mask="url(#mask0)">
<circle cx="16" cy="262" r="3" transform="rotate(-90 16 262)" fill="#00AF91"/>
<circle cx="16" cy="229" r="3" transform="rotate(-90 16 229)" fill="#00AF91"/>
<circle cx="16" cy="196" r="3" transform="rotate(-90 16 196)" fill="#00AF91"/>
<circle cx="16" cy="163" r="3" transform="rotate(-90 16 163)" fill="#00AF91"/>
<circle cx="16" cy="130" r="3" transform="rotate(-90 16 130)" fill="#00AF91"/>
<circle cx="16" cy="97" r="3" transform="rotate(-90 16 97)" fill="#00AF91"/>
<circle cx="16" cy="64" r="3" transform="rotate(-90 16 64)" fill="#00AF91"/>
<circle cx="16" cy="31" r="3" transform="rotate(-90 16 31)" fill="#00AF91"/>
<circle cx="16" cy="-2" r="3" transform="rotate(-90 16 -2)" fill="#00AF91"/>
<circle cx="49" cy="262" r="3" transform="rotate(-90 49 262)" fill="#00AF91"/>
<circle cx="49" cy="229" r="3" transform="rotate(-90 49 229)" fill="#00AF91"/>
<circle cx="49" cy="196" r="3" transform="rotate(-90 49 196)" fill="#00AF91"/>
<circle cx="49" cy="163" r="3" transform="rotate(-90 49 163)" fill="#00AF91"/>
<circle cx="49" cy="130" r="3" transform="rotate(-90 49 130)" fill="#00AF91"/>
<circle cx="49" cy="97" r="3" transform="rotate(-90 49 97)" fill="#00AF91"/>
<circle cx="49" cy="64" r="3" transform="rotate(-90 49 64)" fill="#00AF91"/>
<circle cx="49" cy="31" r="3" transform="rotate(-90 49 31)" fill="#00AF91"/>
<circle cx="49" cy="-2" r="3" transform="rotate(-90 49 -2)" fill="#00AF91"/>
<circle cx="82" cy="262" r="3" transform="rotate(-90 82 262)" fill="#00AF91"/>
<circle cx="82" cy="229" r="3" transform="rotate(-90 82 229)" fill="#00AF91"/>
<circle cx="82" cy="196" r="3" transform="rotate(-90 82 196)" fill="#00AF91"/>
<circle cx="82" cy="163" r="3" transform="rotate(-90 82 163)" fill="#00AF91"/>
<circle cx="82" cy="130" r="3" transform="rotate(-90 82 130)" fill="#00AF91"/>
<circle cx="82" cy="97" r="3" transform="rotate(-90 82 97)" fill="#00AF91"/>
<circle cx="82" cy="64" r="3" transform="rotate(-90 82 64)" fill="#00AF91"/>
<circle cx="82" cy="31" r="3" transform="rotate(-90 82 31)" fill="#00AF91"/>
<circle cx="82" cy="-2" r="3" transform="rotate(-90 82 -2)" fill="#00AF91"/>
<circle cx="115" cy="262" r="3" transform="rotate(-90 115 262)" fill="#00AF91"/>
<circle cx="115" cy="229" r="3" transform="rotate(-90 115 229)" fill="#00AF91"/>
<circle cx="115" cy="196" r="3" transform="rotate(-90 115 196)" fill="#00AF91"/>
<circle cx="115" cy="163" r="3" transform="rotate(-90 115 163)" fill="#00AF91"/>
<circle cx="115" cy="130" r="3" transform="rotate(-90 115 130)" fill="#00AF91"/>
<circle cx="115" cy="97" r="3" transform="rotate(-90 115 97)" fill="#00AF91"/>
<circle cx="115" cy="64" r="3" transform="rotate(-90 115 64)" fill="#00AF91"/>
<circle cx="115" cy="31" r="3" transform="rotate(-90 115 31)" fill="#00AF91"/>
<circle cx="115" cy="-2" r="3" transform="rotate(-90 115 -2)" fill="#00AF91"/>
<circle cx="148" cy="262" r="3" transform="rotate(-90 148 262)" fill="#00AF91"/>
<circle cx="148" cy="229" r="3" transform="rotate(-90 148 229)" fill="#00AF91"/>
<circle cx="148" cy="196" r="3" transform="rotate(-90 148 196)" fill="#00AF91"/>
<circle cx="148" cy="163" r="3" transform="rotate(-90 148 163)" fill="#00AF91"/>
<circle cx="148" cy="130" r="3" transform="rotate(-90 148 130)" fill="#00AF91"/>
<circle cx="148" cy="97" r="3" transform="rotate(-90 148 97)" fill="#00AF91"/>
<circle cx="148" cy="64" r="3" transform="rotate(-90 148 64)" fill="#00AF91"/>
<circle cx="148" cy="31" r="3" transform="rotate(-90 148 31)" fill="#00AF91"/>
<circle cx="148" cy="-2" r="3" transform="rotate(-90 148 -2)" fill="#00AF91"/>
<circle cx="181" cy="262" r="3" transform="rotate(-90 181 262)" fill="#00AF91"/>
<circle cx="181" cy="229" r="3" transform="rotate(-90 181 229)" fill="#00AF91"/>
<circle cx="181" cy="196" r="3" transform="rotate(-90 181 196)" fill="#00AF91"/>
<circle cx="181" cy="163" r="3" transform="rotate(-90 181 163)" fill="#00AF91"/>
<circle cx="181" cy="130" r="3" transform="rotate(-90 181 130)" fill="#00AF91"/>
<circle cx="181" cy="97" r="3" transform="rotate(-90 181 97)" fill="#00AF91"/>
<circle cx="181" cy="64" r="3" transform="rotate(-90 181 64)" fill="#00AF91"/>
<circle cx="181" cy="31" r="3" transform="rotate(-90 181 31)" fill="#00AF91"/>
<circle cx="181" cy="-2" r="3" transform="rotate(-90 181 -2)" fill="#00AF91"/>
<circle cx="214" cy="262" r="3" transform="rotate(-90 214 262)" fill="#00AF91"/>
<circle cx="214" cy="229" r="3" transform="rotate(-90 214 229)" fill="#00AF91"/>
<circle cx="214" cy="196" r="3" transform="rotate(-90 214 196)" fill="#00AF91"/>
<circle cx="214" cy="163" r="3" transform="rotate(-90 214 163)" fill="#00AF91"/>
<circle cx="214" cy="130" r="3" transform="rotate(-90 214 130)" fill="#00AF91"/>
<circle cx="214" cy="97" r="3" transform="rotate(-90 214 97)" fill="#00AF91"/>
<circle cx="214" cy="64" r="3" transform="rotate(-90 214 64)" fill="#00AF91"/>
<circle cx="214" cy="31" r="3" transform="rotate(-90 214 31)" fill="#00AF91"/>
<circle cx="214" cy="-2" r="3" transform="rotate(-90 214 -2)" fill="#00AF91"/>
<circle cx="247" cy="262" r="3" transform="rotate(-90 247 262)" fill="#00AF91"/>
<circle cx="247" cy="229" r="3" transform="rotate(-90 247 229)" fill="#00AF91"/>
<circle cx="247" cy="196" r="3" transform="rotate(-90 247 196)" fill="#00AF91"/>
<circle cx="247" cy="163" r="3" transform="rotate(-90 247 163)" fill="#00AF91"/>
<circle cx="247" cy="130" r="3" transform="rotate(-90 247 130)" fill="#00AF91"/>
<circle cx="247" cy="97" r="3" transform="rotate(-90 247 97)" fill="#00AF91"/>
<circle cx="247" cy="64" r="3" transform="rotate(-90 247 64)" fill="#00AF91"/>
<circle cx="247" cy="31" r="3" transform="rotate(-90 247 31)" fill="#00AF91"/>
<circle cx="247" cy="-2" r="3" transform="rotate(-90 247 -2)" fill="#00AF91"/>
</g>
</g>
</svg>
