<svg width="233" height="292" viewBox="0 0 233 292" fill="none" xmlns="http://www.w3.org/2000/svg">
<g opacity="0.2">
<mask id="mask0" mask-type="alpha" maskUnits="userSpaceOnUse" x="-59" y="0" width="292" height="292">
<rect x="-59" width="292" height="292" fill="#C4C4C4"/>
</mask>
<g mask="url(#mask0)">
<circle cx="20" cy="16" r="3" fill="#1089FF"/>
<circle cx="53" cy="16" r="3" fill="#1089FF"/>
<circle cx="86" cy="16" r="3" fill="#1089FF"/>
<circle cx="119" cy="16" r="3" fill="#1089FF"/>
<circle cx="152" cy="16" r="3" fill="#1089FF"/>
<circle cx="185" cy="16" r="3" fill="#1089FF"/>
<circle cx="218" cy="16" r="3" fill="#1089FF"/>
<circle cx="20" cy="49" r="3" fill="#1089FF"/>
<circle cx="53" cy="49" r="3" fill="#1089FF"/>
<circle cx="86" cy="49" r="3" fill="#1089FF"/>
<circle cx="119" cy="49" r="3" fill="#1089FF"/>
<circle cx="152" cy="49" r="3" fill="#1089FF"/>
<circle cx="185" cy="49" r="3" fill="#1089FF"/>
<circle cx="218" cy="49" r="3" fill="#1089FF"/>
<circle cx="20" cy="82" r="3" fill="#1089FF"/>
<circle cx="53" cy="82" r="3" fill="#1089FF"/>
<circle cx="86" cy="82" r="3" fill="#1089FF"/>
<circle cx="119" cy="82" r="3" fill="#1089FF"/>
<circle cx="152" cy="82" r="3" fill="#1089FF"/>
<circle cx="185" cy="82" r="3" fill="#1089FF"/>
<circle cx="218" cy="82" r="3" fill="#1089FF"/>
<circle cx="20" cy="115" r="3" fill="#1089FF"/>
<circle cx="53" cy="115" r="3" fill="#1089FF"/>
<circle cx="86" cy="115" r="3" fill="#1089FF"/>
<circle cx="119" cy="115" r="3" fill="#1089FF"/>
<circle cx="152" cy="115" r="3" fill="#1089FF"/>
<circle cx="185" cy="115" r="3" fill="#1089FF"/>
<circle cx="218" cy="115" r="3" fill="#1089FF"/>
<circle cx="20" cy="148" r="3" fill="#1089FF"/>
<circle cx="53" cy="148" r="3" fill="#1089FF"/>
<circle cx="86" cy="148" r="3" fill="#1089FF"/>
<circle cx="119" cy="148" r="3" fill="#1089FF"/>
<circle cx="152" cy="148" r="3" fill="#1089FF"/>
<circle cx="185" cy="148" r="3" fill="#1089FF"/>
<circle cx="218" cy="148" r="3" fill="#1089FF"/>
<circle cx="20" cy="181" r="3" fill="#1089FF"/>
<circle cx="53" cy="181" r="3" fill="#1089FF"/>
<circle cx="86" cy="181" r="3" fill="#1089FF"/>
<circle cx="119" cy="181" r="3" fill="#1089FF"/>
<circle cx="152" cy="181" r="3" fill="#1089FF"/>
<circle cx="185" cy="181" r="3" fill="#1089FF"/>
<circle cx="218" cy="181" r="3" fill="#1089FF"/>
<circle cx="20" cy="214" r="3" fill="#1089FF"/>
<circle cx="53" cy="214" r="3" fill="#1089FF"/>
<circle cx="86" cy="214" r="3" fill="#1089FF"/>
<circle cx="119" cy="214" r="3" fill="#1089FF"/>
<circle cx="152" cy="214" r="3" fill="#1089FF"/>
<circle cx="185" cy="214" r="3" fill="#1089FF"/>
<circle cx="218" cy="214" r="3" fill="#1089FF"/>
<circle cx="20" cy="247" r="3" fill="#1089FF"/>
<circle cx="53" cy="247" r="3" fill="#1089FF"/>
<circle cx="86" cy="247" r="3" fill="#1089FF"/>
<circle cx="119" cy="247" r="3" fill="#1089FF"/>
<circle cx="152" cy="247" r="3" fill="#1089FF"/>
<circle cx="185" cy="247" r="3" fill="#1089FF"/>
<circle cx="218" cy="247" r="3" fill="#1089FF"/>
<circle cx="20" cy="280" r="3" fill="#1089FF"/>
<circle cx="53" cy="280" r="3" fill="#1089FF"/>
<circle cx="86" cy="280" r="3" fill="#1089FF"/>
<circle cx="119" cy="280" r="3" fill="#1089FF"/>
<circle cx="152" cy="280" r="3" fill="#1089FF"/>
<circle cx="185" cy="280" r="3" fill="#1089FF"/>
<circle cx="218" cy="280" r="3" fill="#1089FF"/>
</g>
</g>
</svg>
