<svg width="203" height="292" viewBox="0 0 203 292" fill="none" xmlns="http://www.w3.org/2000/svg">
<g opacity="0.2">
<mask id="mask0" mask-type="alpha" maskUnits="userSpaceOnUse" x="0" y="0" width="292" height="292">
<rect width="292" height="292" fill="#C4C4C4"/>
</mask>
<g mask="url(#mask0)">
<circle cx="13" cy="16" r="3" fill="#00AF91"/>
<circle cx="46" cy="16" r="3" fill="#00AF91"/>
<circle cx="79" cy="16" r="3" fill="#00AF91"/>
<circle cx="112" cy="16" r="3" fill="#00AF91"/>
<circle cx="145" cy="16" r="3" fill="#00AF91"/>
<circle cx="178" cy="16" r="3" fill="#00AF91"/>
<circle cx="13" cy="49" r="3" fill="#00AF91"/>
<circle cx="46" cy="49" r="3" fill="#00AF91"/>
<circle cx="79" cy="49" r="3" fill="#00AF91"/>
<circle cx="112" cy="49" r="3" fill="#00AF91"/>
<circle cx="145" cy="49" r="3" fill="#00AF91"/>
<circle cx="178" cy="49" r="3" fill="#00AF91"/>
<circle cx="13" cy="82" r="3" fill="#00AF91"/>
<circle cx="46" cy="82" r="3" fill="#00AF91"/>
<circle cx="79" cy="82" r="3" fill="#00AF91"/>
<circle cx="112" cy="82" r="3" fill="#00AF91"/>
<circle cx="145" cy="82" r="3" fill="#00AF91"/>
<circle cx="178" cy="82" r="3" fill="#00AF91"/>
<circle cx="13" cy="115" r="3" fill="#00AF91"/>
<circle cx="46" cy="115" r="3" fill="#00AF91"/>
<circle cx="79" cy="115" r="3" fill="#00AF91"/>
<circle cx="112" cy="115" r="3" fill="#00AF91"/>
<circle cx="145" cy="115" r="3" fill="#00AF91"/>
<circle cx="178" cy="115" r="3" fill="#00AF91"/>
<circle cx="13" cy="148" r="3" fill="#00AF91"/>
<circle cx="46" cy="148" r="3" fill="#00AF91"/>
<circle cx="79" cy="148" r="3" fill="#00AF91"/>
<circle cx="112" cy="148" r="3" fill="#00AF91"/>
<circle cx="145" cy="148" r="3" fill="#00AF91"/>
<circle cx="178" cy="148" r="3" fill="#00AF91"/>
<circle cx="13" cy="181" r="3" fill="#00AF91"/>
<circle cx="46" cy="181" r="3" fill="#00AF91"/>
<circle cx="79" cy="181" r="3" fill="#00AF91"/>
<circle cx="112" cy="181" r="3" fill="#00AF91"/>
<circle cx="145" cy="181" r="3" fill="#00AF91"/>
<circle cx="178" cy="181" r="3" fill="#00AF91"/>
<circle cx="13" cy="214" r="3" fill="#00AF91"/>
<circle cx="46" cy="214" r="3" fill="#00AF91"/>
<circle cx="79" cy="214" r="3" fill="#00AF91"/>
<circle cx="112" cy="214" r="3" fill="#00AF91"/>
<circle cx="145" cy="214" r="3" fill="#00AF91"/>
<circle cx="178" cy="214" r="3" fill="#00AF91"/>
<circle cx="13" cy="247" r="3" fill="#00AF91"/>
<circle cx="46" cy="247" r="3" fill="#00AF91"/>
<circle cx="79" cy="247" r="3" fill="#00AF91"/>
<circle cx="112" cy="247" r="3" fill="#00AF91"/>
<circle cx="145" cy="247" r="3" fill="#00AF91"/>
<circle cx="178" cy="247" r="3" fill="#00AF91"/>
<circle cx="13" cy="280" r="3" fill="#00AF91"/>
<circle cx="46" cy="280" r="3" fill="#00AF91"/>
<circle cx="79" cy="280" r="3" fill="#00AF91"/>
<circle cx="112" cy="280" r="3" fill="#00AF91"/>
<circle cx="145" cy="280" r="3" fill="#00AF91"/>
<circle cx="178" cy="280" r="3" fill="#00AF91"/>
</g>
</g>
</svg>
